<svg version="1.1" id="Layer_1" xmlns="http://www.w3.org/2000/svg" xmlns:xlink="http://www.w3.org/1999/xlink" x="0px" y="0px"
	 width="100%" viewBox="0 0 1024 1024" enable-background="new 0 0 1024 1024" xml:space="preserve">
<path fill="#000000" opacity="1.000000" stroke="none" 
	d="
M271.916077,702.063599 
	C271.977264,710.885864 272.173615,719.219299 272.031006,727.546936 
	C271.966461,731.317871 273.215424,732.726990 277.114899,733.068298 
	C287.604187,733.986511 298.090820,733.676636 308.579376,733.660950 
	C312.795959,733.654602 316.884674,734.281250 320.892700,735.434570 
	C328.141083,737.520203 331.749969,742.391479 331.334320,749.285828 
	C330.966614,755.384888 327.344238,759.215393 319.763519,760.204651 
	C310.034576,761.474304 300.239075,762.690247 290.447815,762.929993 
	C270.963226,763.407227 251.461975,763.207153 231.967560,763.274780 
	C226.607498,763.293335 221.311554,762.759216 216.205215,761.033752 
	C206.668976,757.811584 202.261749,746.463806 207.226822,737.747559 
	C210.106369,732.692383 215.406631,732.228455 220.308319,731.821289 
	C231.091583,730.925415 241.920166,730.282898 252.728638,731.543518 
	C256.473267,731.980408 257.893158,730.568542 257.720367,726.837097 
	C257.520172,722.514099 257.677185,718.174683 257.677246,713.842346 
	C257.679047,597.536499 257.668030,481.230682 257.687897,364.924866 
	C257.696686,313.578644 293.242767,270.602325 344.109741,263.834503 
	C368.982788,260.525146 394.716278,259.298065 419.014404,269.617798 
	C452.782288,283.959442 473.496460,309.200287 481.105896,344.972534 
	C482.263947,350.416534 483.845245,352.444214 489.713989,352.951263 
	C506.315979,354.385559 514.747986,361.781067 516.797546,376.435516 
	C518.661865,389.765594 521.171326,403.004456 523.174072,416.316956 
	C523.553345,418.837708 524.732483,419.584259 526.887512,420.136871 
	C534.658325,422.129669 537.292236,425.070374 538.169373,432.762177 
	C538.715759,437.553467 538.818848,442.399841 539.477417,447.172272 
	C539.939697,450.522888 538.376282,451.662018 535.510864,452.210083 
	C528.944580,453.465942 522.290833,453.946442 515.645813,454.083344 
	C489.157837,454.629089 462.663635,454.670929 436.209656,453.043823 
	C428.430603,452.565369 420.579102,452.201324 412.936157,450.360016 
	C407.233521,448.986176 405.593140,446.560455 406.994537,441.042145 
	C408.139282,436.534393 409.597626,432.099792 411.069336,427.683502 
	C412.412842,423.651794 414.993500,420.669495 419.301208,419.741882 
	C421.849548,419.193146 422.806854,417.598999 423.324860,415.301575 
	C426.103302,402.979462 429.129303,390.709747 431.699921,378.345032 
	C434.610687,364.344147 441.254761,357.493713 455.197845,354.623444 
	C460.890747,353.451508 466.606873,352.563110 472.466064,352.556427 
	C473.591949,349.696991 472.874237,347.223389 472.286072,344.908783 
	C462.316162,305.673615 437.945587,280.276428 397.995758,273.011505 
	C373.259583,268.513214 347.648560,268.219666 323.978638,279.483459 
	C290.346252,295.488068 270.471130,322.286407 269.532806,359.732880 
	C268.314697,408.345764 268.963562,457.024109 270.136444,505.665955 
	C270.244904,510.162964 270.219910,514.663269 270.251282,519.162048 
	C270.643616,575.473633 271.026031,631.785217 271.443481,688.096619 
	C271.476837,692.589539 271.750824,697.080566 271.916077,702.063599 
M428.528625,432.492249 
	C428.897095,433.949524 427.234528,435.376892 428.232574,437.138641 
	C431.094177,434.771423 429.814331,430.548401 432.965332,428.230743 
	C432.965332,432.450623 432.926331,436.168427 432.982330,439.884796 
	C433.009033,441.656067 432.669342,443.924316 435.177948,444.208160 
	C437.588013,444.480865 438.708771,442.615173 439.160706,440.551025 
	C439.690186,438.132660 439.960785,435.658203 440.361877,433.211060 
	C441.292816,427.531067 440.405426,426.007050 435.769470,425.362610 
	C431.381683,424.752625 429.109070,426.762695 428.528625,432.492249 
z"/>
<path fill="#000000" opacity="1.000000" stroke="none" 
	d="
M366.674438,675.883972 
	C366.672272,632.758972 366.741364,590.120239 366.569580,547.482483 
	C366.550690,542.786682 367.665649,540.526978 372.652985,540.156494 
	C383.086731,539.381348 393.458557,537.726196 403.882721,540.468323 
	C415.245605,543.457336 421.803955,551.051025 422.178101,562.886230 
	C422.483124,572.536560 422.277252,582.203796 422.253021,591.863403 
	C422.243164,595.800171 420.818878,599.362366 418.962372,602.741516 
	C418.104401,604.303162 417.324493,605.628052 419.104187,607.100159 
	C426.207794,612.975708 427.481812,621.497620 427.949371,629.693481 
	C428.610474,641.281860 429.401520,653.008545 427.273560,664.561829 
	C425.637421,673.444885 420.609192,679.547241 411.686676,682.262207 
	C402.287384,685.122192 392.730835,685.639709 383.028412,684.854370 
	C380.042908,684.612732 377.058289,684.327393 374.067352,684.192139 
	C366.742310,683.860718 366.740936,683.891235 366.674438,675.883972 
M380.102173,616.354065 
	C380.098602,633.815613 380.123505,651.277344 380.051239,668.738586 
	C380.043274,670.664062 379.576355,672.573975 382.368988,672.642761 
	C390.350952,672.839233 398.327362,673.053894 406.026672,670.267700 
	C410.185547,668.762634 412.795898,665.823547 413.418793,661.609070 
	C415.274567,649.052307 415.549957,636.433777 413.292267,623.901611 
	C412.245758,618.092590 408.297180,614.643677 402.546387,613.451660 
	C396.155060,612.126953 389.660156,612.259766 383.176147,612.350769 
	C381.048187,612.380615 379.517609,612.946899 380.102173,616.354065 
M402.573853,598.312439 
	C405.625946,597.014038 407.081055,594.536072 407.680511,591.417847 
	C409.622711,581.314941 408.983093,571.205200 407.353149,561.172852 
	C406.588989,556.469604 403.050903,553.705994 398.590942,552.527405 
	C393.401978,551.156189 388.038818,551.253296 382.705505,551.376831 
	C381.081360,551.414429 379.619293,551.700256 379.762787,553.822083 
	C380.783752,568.914429 379.961853,584.025269 380.199860,599.892700 
	C387.454224,599.898804 394.675934,600.705444 402.573853,598.312439 
z"/>
<path fill="#000000" opacity="1.000000" stroke="none" 
	d="
M697.288696,573.000000 
	C697.289062,582.141296 697.289062,590.782593 697.289062,599.817566 
	C709.032898,599.817566 720.404053,599.817566 731.938843,599.817566 
	C731.938843,585.787170 731.937073,571.857117 731.940063,557.927002 
	C731.940857,554.261292 731.934082,550.595398 731.972717,546.929993 
	C732.003235,544.036499 731.839233,541.068115 736.124146,541.026062 
	C741.749390,540.970825 744.689819,542.675049 745.213379,546.706726 
	C745.405334,548.184875 745.333862,549.700928 745.334106,551.199707 
	C745.341492,593.022217 745.363831,634.844727 745.297546,676.667114 
	C745.293030,679.488281 746.727112,683.326843 741.310730,683.424866 
	C734.491699,683.548218 732.329651,682.456238 732.133179,676.617615 
	C731.797180,666.631287 731.951904,656.627808 731.932617,646.631470 
	C731.911804,635.818726 731.927856,625.005859 731.927856,613.951843 
	C728.712280,612.348877 725.181030,613.263489 721.788269,613.183167 
	C715.293457,613.029236 708.787231,613.285034 702.296448,613.060303 
	C698.321045,612.922607 697.186646,614.480896 697.218750,618.346558 
	C697.377930,637.506897 697.251099,656.669434 697.305481,675.830933 
	C697.318054,680.262024 696.171753,683.232361 690.957825,683.372742 
	C684.301575,683.551941 683.832092,683.304016 683.831604,676.623535 
	C683.828735,633.967896 683.812988,591.312256 683.899658,548.656799 
	C683.905762,545.659973 682.472961,540.991150 687.847717,541.239563 
	C694.354431,541.540405 697.308594,541.639648 697.277893,549.005859 
	C697.245300,556.837097 697.281921,564.668579 697.288696,573.000000 
z"/>
<path fill="#000000" opacity="1.000000" stroke="none" 
	d="
M642.083862,540.697815 
	C644.979004,541.145691 647.456665,541.480713 649.889832,542.017395 
	C651.911316,542.463379 654.525696,542.392151 654.516785,545.492676 
	C654.508484,548.363403 653.568787,550.856079 650.505615,551.682434 
	C648.766907,552.151550 646.888184,552.362061 645.088196,552.290771 
	C640.930725,552.126160 636.787354,551.619995 632.630188,551.429504 
	C622.386780,550.960266 615.531067,556.305908 613.280273,566.347229 
	C611.527161,574.168335 610.450134,582.084290 610.359375,590.092163 
	C610.166992,607.080505 609.546875,624.084595 610.795349,641.048462 
	C611.220459,646.825378 612.222900,652.627563 613.633179,658.249756 
	C616.299011,668.877075 624.734741,674.122925 635.585144,672.444519 
	C644.852295,671.011047 644.852783,671.011108 644.854675,661.622803 
	C644.857239,649.125793 644.826416,636.628540 644.888611,624.131836 
	C644.900940,621.647461 645.078674,619.131165 645.511475,616.688354 
	C646.387939,611.741333 652.600830,608.833374 657.071594,611.146545 
	C658.823669,612.053101 659.055603,613.713074 659.055969,615.419189 
	C659.060303,636.080688 659.048889,656.742249 659.039307,677.403748 
	C659.038208,679.800781 658.308899,681.727051 655.616272,682.129883 
	C648.711121,683.163086 641.826721,684.689087 634.883667,685.049561 
	C612.796387,686.196411 602.202393,676.698669 599.047485,655.379944 
	C594.695740,625.973389 594.640320,596.218445 599.120728,566.821777 
	C601.671570,550.085022 609.329712,540.664612 626.834045,538.930786 
	C631.889038,538.430176 636.708008,540.098999 642.083862,540.697815 
z"/>
<path fill="#000000" opacity="1.000000" stroke="none" 
	d="
M795.000000,540.872559 
	C802.160950,540.875427 808.823059,540.953979 815.482300,540.849548 
	C819.013855,540.794189 820.800537,542.093445 820.532898,545.835266 
	C820.287415,549.266052 821.094299,553.208313 815.532532,552.966919 
	C811.876465,552.808105 808.199402,553.109131 804.545837,552.924438 
	C800.489075,552.719360 799.140564,554.234985 799.158875,558.437927 
	C799.320435,595.572021 799.259338,632.707031 799.262878,669.841797 
	C799.263000,671.673523 799.295654,673.506714 799.238098,675.336792 
	C799.019226,682.295227 793.034119,685.998108 786.758606,683.116211 
	C785.068665,682.340088 784.934570,680.872070 784.898560,679.364685 
	C784.839050,676.868103 784.858704,674.369568 784.858521,671.871826 
	C784.856323,635.569702 784.855042,599.267517 784.856995,562.965393 
	C784.857544,552.963806 784.862793,552.963745 774.433838,552.957581 
	C773.101685,552.956787 771.769409,552.966125 770.437317,552.955872 
	C764.396057,552.909241 763.612244,551.932556 763.780457,545.924316 
	C763.882202,542.289673 765.523682,540.875854 769.022156,540.898865 
	C777.514343,540.954834 786.007324,540.888977 795.000000,540.872559 
z"/>
<path fill="#000000" opacity="1.000000" stroke="none" 
	d="
M483.753906,644.000000 
	C483.760284,611.677917 483.752625,579.855774 483.796753,548.033752 
	C483.800995,544.993225 482.989563,541.321289 487.919373,541.050415 
	C494.568054,540.685059 497.547089,542.583008 498.127838,547.832581 
	C498.328430,549.645691 498.243011,551.493469 498.243408,553.325378 
	C498.251404,590.812134 498.317383,628.299133 498.168976,665.785278 
	C498.151703,670.150085 499.467621,671.839905 503.845947,671.619263 
	C511.822815,671.217468 519.813293,670.608582 527.799561,671.584106 
	C532.482788,672.156250 535.432983,676.956665 533.854309,681.342407 
	C533.207336,683.139893 531.833252,683.370483 530.278625,683.370850 
	C516.117065,683.374390 501.955383,683.328369 487.794128,683.388123 
	C484.249451,683.403076 483.761169,681.285156 483.766235,678.488098 
	C483.786682,667.158752 483.762115,655.829346 483.753906,644.000000 
z"/>
<path fill="#000000" opacity="1.000000" stroke="none" 
	d="
M568.261963,559.007324 
	C568.263184,598.616699 568.285034,637.727539 568.219910,676.838135 
	C568.215210,679.653931 569.688965,683.521729 564.203674,683.479248 
	C557.262085,683.425537 555.270813,682.229980 554.787537,676.756226 
	C554.685364,675.598755 554.715027,674.428101 554.715088,673.263489 
	C554.717102,631.656311 554.708191,590.049072 554.755676,548.441956 
	C554.759460,545.138062 553.653137,540.929688 559.382263,541.047607 
	C566.093323,541.185852 568.071655,542.904846 568.216370,549.022461 
	C568.291138,552.183167 568.250122,555.346497 568.261963,559.007324 
z"/>
<path fill="#000000" opacity="1.000000" stroke="none" 
	d="
M745.642212,724.665039 
	C750.723450,724.918091 752.116760,726.522461 750.734802,730.747437 
	C747.579407,740.394226 744.216003,749.973511 740.880188,759.560364 
	C740.203979,761.503845 739.157532,763.235352 736.703064,763.241394 
	C734.502319,763.246765 733.511902,761.693420 732.692017,760.001892 
	C730.605103,755.696289 728.553650,751.373413 726.216431,746.489990 
	C722.782532,750.392212 721.641235,754.757996 719.711853,758.670471 
	C718.577515,760.970642 717.580627,763.386047 714.480103,763.228210 
	C711.484985,763.075806 710.991699,760.450562 710.247192,758.309814 
	C707.133118,749.355896 704.099609,740.373840 701.067017,731.391785 
	C700.169556,728.733459 699.555176,725.931702 702.988281,724.666382 
	C706.711670,723.293945 708.010620,725.954285 708.985779,728.834900 
	C711.116272,735.129211 713.252319,741.421631 715.660461,748.523926 
	C718.595337,744.369507 719.632507,740.196655 721.423950,736.417114 
	C722.443787,734.265259 723.271118,731.899048 726.126038,731.931458 
	C728.984985,731.964050 729.843384,734.358582 730.733398,736.539612 
	C732.234497,740.218079 733.714294,743.905273 735.609619,748.594666 
	C738.877502,741.957458 740.265198,735.721436 742.325806,729.746155 
	C742.972412,727.871216 743.191467,725.783142 745.642212,724.665039 
z"/>
<path fill="#000000" opacity="1.000000" stroke="none" 
	d="
M371.929810,724.783020 
	C376.416779,723.477356 380.592255,724.027283 384.723572,724.021057 
	C397.322205,724.002136 401.316559,730.384766 395.748627,741.713196 
	C396.929016,743.374268 398.433380,744.967896 399.333435,746.850464 
	C402.790070,754.080322 398.316742,762.424805 390.339294,763.157227 
	C384.903046,763.656372 379.386536,763.314087 373.906219,763.286438 
	C371.308807,763.273376 369.804962,761.807678 369.786713,759.272461 
	C369.712585,748.974487 369.751129,738.675720 369.765503,728.377197 
	C369.767487,726.965271 370.361877,725.811584 371.929810,724.783020 
M389.835480,747.522278 
	C387.909332,746.347534 385.770508,746.234680 383.613220,746.355652 
	C381.718384,746.461914 379.141449,745.746948 378.529022,748.232361 
	C377.887115,750.837097 376.784058,754.605408 379.449493,755.984619 
	C382.535126,757.581299 386.658844,757.598877 389.822296,755.297363 
	C392.504578,753.345886 392.598907,750.628845 389.835480,747.522278 
M378.140259,733.853516 
	C378.255249,735.754211 377.214111,738.342712 379.624298,739.151855 
	C382.442139,740.097839 385.622650,740.290710 388.276917,738.427307 
	C390.600433,736.796021 390.205872,732.581543 387.507935,731.889221 
	C384.482269,731.112915 381.009064,729.893188 378.140259,733.853516 
z"/>
<path fill="#000000" opacity="1.000000" stroke="none" 
	d="
M652.788635,759.584595 
	C652.730530,758.968994 652.719055,758.802673 652.716370,758.636169 
	C652.513428,746.235107 652.519165,746.305298 640.163025,747.309631 
	C637.409790,747.533386 636.268066,748.650940 636.295349,751.313660 
	C636.320984,753.810974 636.317993,756.315430 636.156494,758.805725 
	C636.002075,761.185120 634.946716,763.018494 632.287720,763.203796 
	C629.491699,763.398621 628.211792,761.473938 628.172913,759.175354 
	C628.001160,749.021118 627.982361,738.861938 628.102173,728.706787 
	C628.132812,726.116638 629.671936,724.190247 632.562378,724.399170 
	C635.221680,724.591309 636.057129,726.605408 636.223999,728.975525 
	C636.259033,729.473450 636.246521,729.974609 636.262817,730.474060 
	C636.594604,740.619934 639.454041,742.731201 649.545105,740.422424 
	C651.671387,739.935913 652.704407,738.847839 652.677551,736.645752 
	C652.643005,733.815063 652.637146,730.979614 652.765564,728.152832 
	C652.873047,725.783997 654.324280,724.460815 656.633545,724.421509 
	C659.072449,724.380066 660.289978,725.902283 660.299805,728.239746 
	C660.342957,738.566711 660.345703,748.893982 660.307922,759.221008 
	C660.300476,761.253479 659.345947,762.786499 657.192627,763.138428 
	C654.783508,763.532166 653.441223,762.260864 652.788635,759.584595 
z"/>
<path fill="#000000" opacity="1.000000" stroke="none" 
	d="
M562.483582,761.748413 
	C561.223511,760.849487 560.208069,760.242126 559.398376,759.429749 
	C558.010559,758.037415 557.220886,756.368713 558.549927,754.533386 
	C559.963196,752.581604 561.866821,752.501038 563.846497,753.622070 
	C566.737732,755.259216 569.512878,757.110352 573.107422,756.747498 
	C575.703552,756.485535 578.412598,756.082581 578.982056,753.152161 
	C579.603333,749.954834 576.922974,748.950195 574.471863,748.222839 
	C571.932678,747.469299 569.276001,747.083191 566.778503,746.223206 
	C560.735596,744.142395 558.422668,740.736145 558.642395,734.679749 
	C558.832397,729.444031 561.509766,726.320312 567.286194,724.558228 
	C573.055176,722.798340 578.482910,723.636780 583.494324,726.877747 
	C585.373413,728.092896 586.955811,729.839050 585.626953,732.295410 
	C584.286743,734.772949 582.173706,734.376770 580.025085,733.303406 
	C577.635498,732.109680 575.202332,731.081360 572.421875,731.233154 
	C569.867737,731.372620 567.004822,731.386902 566.555298,734.567810 
	C566.093811,737.832581 569.073181,738.519226 571.378418,739.309998 
	C573.408997,740.006470 575.572327,740.309509 577.667908,740.823669 
	C583.914551,742.356262 586.928955,745.681885 587.216492,751.323853 
	C587.493408,756.757935 584.092896,761.247803 578.330627,763.101685 
	C572.999329,764.816895 567.848755,764.239685 562.483582,761.748413 
z"/>
<path fill="#000000" opacity="1.000000" stroke="none" 
	d="
M437.745758,725.974609 
	C440.900452,723.331055 443.178101,724.393677 445.114868,727.064270 
	C447.623016,730.522705 450.102997,734.001526 452.786774,737.738464 
	C456.501862,734.676514 458.224213,730.845398 460.692444,727.621765 
	C462.404541,725.385742 464.214844,723.096619 467.201721,725.125610 
	C470.247253,727.194397 468.748474,729.716980 467.115784,732.011902 
	C465.864655,733.770447 464.754944,735.642761 463.383911,737.300415 
	C458.773315,742.875000 455.921600,748.957886 457.070709,756.446899 
	C457.317810,758.057373 457.181335,759.789551 456.243042,761.274780 
	C455.375000,762.648743 454.134338,763.385864 452.474182,763.162415 
	C450.754578,762.930969 449.878052,761.828918 449.643494,760.171936 
	C449.574097,759.681396 449.490601,759.159485 449.582031,758.684387 
	C451.484314,748.803711 446.576050,741.537170 440.599396,734.543396 
	C438.669342,732.285034 435.860291,730.010376 437.745758,725.974609 
z"/>
<path fill="#000000" opacity="1.000000" stroke="none" 
	d="
M461.882874,676.374756 
	C458.128601,683.437073 451.702209,685.487000 446.721710,681.554138 
	C443.153412,678.736145 442.010437,673.858154 444.000488,669.939697 
	C446.011658,665.979675 450.639465,663.883606 454.918549,664.994507 
	C459.746582,666.247925 462.245178,670.123718 461.882874,676.374756 
z"/>
</svg>
